<?xml version="1.0" ?><!DOCTYPE svg  PUBLIC '-//W3C//DTD SVG 1.1//EN'  'http://www.w3.org/Graphics/SVG/1.1/DTD/svg11.dtd'><!-- Uploaded to: SVG Repo, www.svgrepo.com, Generator: SVG Repo Mixer Tools -->
<svg width="800px" height="800px" viewBox="0 0 32 32" style="fill-rule:evenodd;clip-rule:evenodd;stroke-linejoin:round;stroke-miterlimit:2;" version="1.1" xml:space="preserve" xmlns="http://www.w3.org/2000/svg" xmlns:serif="http://www.serif.com/" xmlns:xlink="http://www.w3.org/1999/xlink"><path d="M7.514,16.262c-3.027,1.36 -5.014,3.419 -5.014,5.781c0,2.536 2.292,4.722 5.699,6.07c0.256,0.102 0.382,0.392 0.281,0.649c-0.102,0.257 -0.393,0.382 -0.649,0.281c-3.862,-1.528 -6.331,-4.125 -6.331,-7c0,-2.925 2.559,-5.563 6.538,-7.08c0.179,-0.068 0.381,-0.028 0.521,0.103c0.139,0.131 0.192,0.33 0.135,0.513c-0.143,0.458 -0.225,0.894 -0.225,1.304c0,0.556 0.062,1.097 0.179,1.618c0.044,0.194 -0.031,0.395 -0.191,0.512c-1.145,0.844 -1.855,1.884 -1.855,3.03c0,1.1 0.654,2.102 1.717,2.926c1.732,1.343 4.531,2.199 7.681,2.199c2.964,0 5.617,-0.759 7.365,-1.968c0.227,-0.157 0.539,-0.1 0.696,0.127c0.157,0.227 0.1,0.539 -0.127,0.696c-1.884,1.303 -4.738,2.145 -7.934,2.145c-3.405,0 -6.421,-0.957 -8.293,-2.408c-1.339,-1.038 -2.105,-2.332 -2.105,-3.717c0,-1.349 0.729,-2.614 2.006,-3.638c-0.091,-0.494 -0.139,-1.002 -0.139,-1.522c0,-0.201 0.016,-0.409 0.045,-0.621Z" style="fill:#32b2ff;"/><path d="M24.054,18.148c0.851,0.612 1.498,1.321 1.893,2.088c0.126,0.246 0.029,0.547 -0.217,0.673c-0.245,0.127 -0.547,0.03 -0.673,-0.216c-0.365,-0.71 -0.999,-1.351 -1.826,-1.897c-0.169,-0.112 -0.254,-0.314 -0.215,-0.512c0.087,-0.453 0.133,-0.922 0.133,-1.401c0,-0.444 -0.068,-0.937 -0.189,-1.465c-0.041,-0.178 0.019,-0.364 0.156,-0.486c0.136,-0.121 0.328,-0.158 0.5,-0.097c4.174,1.495 6.884,4.2 6.884,7.208c0,1.899 -1.06,3.67 -2.896,5.093c-2.619,2.03 -6.84,3.364 -11.604,3.364c-0.276,-0 -0.5,-0.224 -0.5,-0.5c0,-0.276 0.224,-0.5 0.5,-0.5c4.509,-0 8.513,-1.233 10.991,-3.154c1.561,-1.21 2.509,-2.688 2.509,-4.303c0,-2.463 -2.156,-4.596 -5.403,-5.95c0.034,0.276 0.052,0.54 0.052,0.79c0,0.43 -0.032,0.853 -0.095,1.265Z" style="fill:#32b2ff;"/><path d="M16.143,1.628c-0.16,-0.145 -0.396,-0.169 -0.584,-0.061c-0.187,0.108 -0.284,0.324 -0.239,0.536c0.085,0.405 -0.048,0.897 -0.291,1.461c-0.427,0.992 -1.211,2.16 -2.109,3.41c-1.393,1.941 -3.056,4.071 -4.165,6.046c-0.782,1.394 -1.286,2.721 -1.286,3.863c0,4.603 3.737,8.34 8.34,8.34c4.603,0 8.34,-3.737 8.34,-8.34c0,-1.846 -1.012,-4.445 -2.356,-6.987c-1.986,-3.754 -4.672,-7.39 -5.65,-8.268Zm0.078,1.556c-0.066,0.247 -0.157,0.506 -0.274,0.776c-0.45,1.045 -1.269,2.28 -2.215,3.597c-1.371,1.912 -3.013,4.007 -4.105,5.953c-0.685,1.221 -1.158,2.373 -1.158,3.373c0,4.051 3.289,7.34 7.34,7.34c4.051,0 7.34,-3.289 7.34,-7.34c0,-1.726 -0.984,-4.143 -2.24,-6.52c-1.532,-2.896 -3.484,-5.727 -4.688,-7.179Z" style="fill:#32b2ff;"/><path d="M17.079,22.494c0.339,-0.054 0.67,-0.154 0.991,-0.276c3.38,-1.279 3.872,-5.188 3.425,-8.289c-0.039,-0.273 -0.293,-0.463 -0.566,-0.424c-0.273,0.039 -0.463,0.293 -0.424,0.566c0.198,1.374 0.214,2.935 -0.201,4.295c-0.391,1.282 -1.175,2.382 -2.588,2.917c-0.257,0.098 -0.523,0.18 -0.795,0.223c-0.272,0.044 -0.458,0.3 -0.415,0.573c0.044,0.272 0.3,0.458 0.573,0.415Z" style="fill:#32b2ff;"/></svg>